<?xml version="1.0" encoding="UTF-8"?>
<svg id="Ebene_2" data-name="Ebene 2" xmlns="http://www.w3.org/2000/svg" xmlns:xlink="http://www.w3.org/1999/xlink" viewBox="0 0 133.68 45.24">
  <defs>
    <linearGradient id="Unbenannter_Verlauf_47" data-name="Unbenannter Verlauf 47" x1="56.35" y1="1034.11" x2="77.81" y2="1071.28" gradientTransform="translate(0 1074.82) scale(1 -1)" gradientUnits="userSpaceOnUse">
      <stop offset=".05" stop-color="#cd092e" stop-opacity=".4"/>
      <stop offset=".2" stop-color="#cd092e"/>
      <stop offset=".5" stop-color="#cd092e"/>
      <stop offset=".71" stop-color="#cd092e" stop-opacity=".51"/>
      <stop offset=".87" stop-color="#cd092e" stop-opacity=".14"/>
      <stop offset=".95" stop-color="#cd092e" stop-opacity="0"/>
    </linearGradient>
    <linearGradient id="Unbenannter_Verlauf_46" data-name="Unbenannter Verlauf 46" x1="61.04" y1="1034.11" x2="80.39" y2="1067.62" gradientTransform="translate(0 1074.82) scale(1 -1)" gradientUnits="userSpaceOnUse">
      <stop offset=".05" stop-color="#f5997f" stop-opacity=".3"/>
      <stop offset=".2" stop-color="#f5997f"/>
      <stop offset=".45" stop-color="#f5997f"/>
      <stop offset=".95" stop-color="#f5997f" stop-opacity="0"/>
    </linearGradient>
    <linearGradient id="Unbenannter_Verlauf_45" data-name="Unbenannter Verlauf 45" x1="65.73" y1="1034.11" x2="82.97" y2="1063.97" gradientTransform="translate(0 1074.82) scale(1 -1)" gradientUnits="userSpaceOnUse">
      <stop offset="0" stop-color="#ca6e44" stop-opacity="0"/>
      <stop offset=".25" stop-color="#ca6e44" stop-opacity=".45"/>
      <stop offset=".65" stop-color="#ca6e44" stop-opacity=".45"/>
      <stop offset=".67" stop-color="#ca6e44" stop-opacity=".41"/>
      <stop offset=".77" stop-color="#ca6e44" stop-opacity=".19"/>
      <stop offset=".85" stop-color="#ca6e44" stop-opacity=".05"/>
      <stop offset=".9" stop-color="#ca6e44" stop-opacity="0"/>
    </linearGradient>
    <linearGradient id="Unbenannter_Verlauf_4" data-name="Unbenannter Verlauf 4" x1="43.12" y1="1031.02" x2="64.58" y2="1068.18" gradientTransform="translate(0 1074.82) scale(1 -1)" gradientUnits="userSpaceOnUse">
      <stop offset=".05" stop-color="#0090a5" stop-opacity="0"/>
      <stop offset=".14" stop-color="#0090a5" stop-opacity=".18"/>
      <stop offset=".34" stop-color="#0090a5" stop-opacity=".62"/>
      <stop offset=".5" stop-color="#0090a5"/>
      <stop offset=".8" stop-color="#0090a5"/>
      <stop offset=".95" stop-color="#0090a5" stop-opacity=".4"/>
    </linearGradient>
    <linearGradient id="Unbenannter_Verlauf_44" data-name="Unbenannter Verlauf 44" x1="40.54" y1="1034.67" x2="59.89" y2="1068.18" gradientTransform="translate(0 1074.82) scale(1 -1)" gradientUnits="userSpaceOnUse">
      <stop offset=".05" stop-color="#00e3eb" stop-opacity="0"/>
      <stop offset=".55" stop-color="#00e3eb"/>
      <stop offset=".8" stop-color="#00e3eb"/>
      <stop offset=".95" stop-color="#00e3eb" stop-opacity=".3"/>
    </linearGradient>
    <linearGradient id="Unbenannter_Verlauf_43" data-name="Unbenannter Verlauf 43" x1="37.96" y1="1038.32" x2="55.2" y2="1068.18" gradientTransform="translate(0 1074.82) scale(1 -1)" gradientUnits="userSpaceOnUse">
      <stop offset=".1" stop-color="#7ee4e2" stop-opacity="0"/>
      <stop offset=".14" stop-color="#7ee4e2" stop-opacity=".05"/>
      <stop offset=".22" stop-color="#7ee4e2" stop-opacity=".17"/>
      <stop offset=".31" stop-color="#7ee4e2" stop-opacity=".36"/>
      <stop offset=".35" stop-color="#7ee4e2" stop-opacity=".45"/>
      <stop offset=".75" stop-color="#7ee4e2" stop-opacity=".45"/>
      <stop offset="1" stop-color="#7ee4e2" stop-opacity="0"/>
    </linearGradient>
  </defs>
  <g id="Ebene_1-2" data-name="Ebene 1">
    <g>
      <g>
        <path d="M121.83,5.93c3.27,0,5.93,2.66,5.93,5.93,0-3.27,2.66-5.93,5.93-5.93-3.27,0-5.93-2.66-5.93-5.93,0,3.27-2.66,5.93-5.93,5.93"/>
        <path d="M15.38,2.23H0v20.07h2.7V4.94h12.68c10.33,0,18.74,8.41,18.74,18.74s-8.41,18.74-18.74,18.74H0v2.7h15.38c11.82,0,21.44-9.62,21.44-21.44S27.2,2.23,15.38,2.23Z"/>
        <polygon points="51.43 42.28 74.63 2.11 48.12 2.11 48.12 5.06 69.51 5.06 46.32 45.24 73.15 45.24 74.86 42.28 51.43 42.28"/>
        <polygon points="130.17 43.69 130.18 43.68 105.47 .88 79.92 45.15 118.54 45.15 116.98 42.45 84.6 42.45 105.47 6.29 124.78 39.72 124.76 39.72 127.9 45.15 131.02 45.15 130.17 43.69"/>
      </g>
      <g>
        <path d="M58.11,40.1h-2.82L76.75,2.93l1.41,2.44-20.05,34.73Z" fill="url(#Unbenannter_Verlauf_47)"/>
        <path d="M62.8,40.1h-2.82L79.33,6.58l1.41,2.44-17.94,31.08Z" fill="url(#Unbenannter_Verlauf_46)"/>
        <path d="M67.49,40.1h-2.82l17.24-29.87,1.41,2.44-15.83,27.42Z" fill="url(#Unbenannter_Verlauf_45)"/>
        <path d="M62.82,7.25h2.82l-21.46,37.17-1.41-2.44L62.82,7.25h0Z" fill="url(#Unbenannter_Verlauf_4)"/>
        <path d="M58.13,7.25h2.82l-19.35,33.52-1.41-2.44L58.13,7.25Z" fill="url(#Unbenannter_Verlauf_44)"/>
        <path d="M53.44,7.25h2.82l-17.24,29.87-1.41-2.44,15.83-27.42Z" fill="url(#Unbenannter_Verlauf_43)"/>
      </g>
    </g>
  </g>
</svg>